<svg width="26" height="26" viewBox="0 0 26 26" fill="none" xmlns="http://www.w3.org/2000/svg">
<path d="M26 13C26 15.7571 25.142 18.3135 23.6775 20.4174C23.3496 20.8886 22.9909 21.3375 22.6046 21.7604C20.2275 24.3657 16.8045 26 13 26C8.87925 26 5.20635 24.0829 2.82445 21.0913C2.64987 20.8722 2.48219 20.6471 2.32197 20.4169C0.858 18.3135 0 15.7565 0 13C0 5.82029 5.82029 0 13 0C20.1797 0 26 5.82029 26 13Z" fill="#F0EFEB"/>
<path d="M8.83696 17.4185C12.5379 17.4185 15.5381 14.4183 15.5381 10.7174C15.5381 7.01648 12.5379 4.0163 8.83696 4.0163C5.13605 4.0163 2.13586 7.01648 2.13586 10.7174C2.13586 14.4183 5.13605 17.4185 8.83696 17.4185Z" fill="#EE0005"/>
<path d="M17.1625 17.4185C20.8634 17.4185 23.8636 14.4183 23.8636 10.7174C23.8636 7.01648 20.8634 4.0163 17.1625 4.0163C13.4616 4.0163 10.4614 7.01648 10.4614 10.7174C10.4614 14.4183 13.4616 17.4185 17.1625 17.4185Z" fill="#F9A000"/>
<path d="M10.4615 10.7173C10.4615 12.845 11.4534 14.7409 12.9998 15.9684C14.5461 14.7409 15.538 12.845 15.538 10.7173C15.538 8.58956 14.5462 6.69364 12.9998 5.46616C11.4535 6.69374 10.4615 8.58961 10.4615 10.7173Z" fill="#FF6300"/>
<path d="M4.78129 19.4289C4.50377 19.4289 4.22625 19.5817 4.05913 19.907C3.94878 19.6247 3.71899 19.4289 3.43193 19.4289C3.11145 19.4289 2.90081 19.6056 2.79574 19.7924V19.6199C2.79574 19.5244 2.69067 19.4576 2.57078 19.4576C2.42275 19.4576 2.3219 19.5245 2.3219 19.6199V20.4169C2.48217 20.6472 2.64979 20.8721 2.82438 21.0913V20.3713C2.82438 20.046 3.04457 19.8736 3.26958 19.8736C3.50409 19.8736 3.71422 20.0699 3.71422 20.3665V21.563C3.71422 21.6776 3.84849 21.7254 3.9631 21.7254C4.09259 21.7254 4.21675 21.6776 4.21675 21.563V20.3617C4.21675 20.0508 4.44171 19.8688 4.66672 19.8688C4.88691 19.8688 5.11192 20.0413 5.11192 20.3713V21.5583C5.11192 21.6395 5.23131 21.7254 5.3608 21.7254C5.49928 21.7254 5.6139 21.6394 5.6139 21.5583V20.3713C5.61379 19.7685 5.21211 19.4289 4.78129 19.4289Z" fill="#171614"/>
<path d="M6.84376 19.4289C6.5185 19.4289 6.12104 19.5626 6.12104 19.7351C6.12104 19.8497 6.18365 19.9887 6.30304 19.9887C6.39856 19.9887 6.48504 19.8449 6.83416 19.8449C7.18328 19.8449 7.308 20.1176 7.308 20.3617V20.4477H7.09736C6.43248 20.4477 5.97778 20.5915 5.97778 21.1321C5.97778 21.563 6.26485 21.7636 6.61397 21.7636C6.93922 21.7636 7.16901 21.5869 7.33669 21.3905V21.5582C7.33669 21.6489 7.43698 21.7253 7.56642 21.7253C7.7049 21.7253 7.81053 21.6489 7.81053 21.5582V20.3569C7.81053 19.8783 7.54733 19.4289 6.84376 19.4289ZM7.30805 20.9024C7.30805 21.1321 7.0353 21.381 6.79602 21.381C6.61879 21.381 6.48509 21.2855 6.48509 21.0701C6.48509 20.7639 6.82466 20.7252 7.18815 20.7252H7.30805V20.9024Z" fill="#171614"/>
<path d="M8.69078 20.0937C8.69078 19.9744 8.79585 19.8162 9.07814 19.8162C9.34662 19.8162 9.49465 19.9553 9.59494 19.9553C9.71484 19.9553 9.78649 19.7828 9.78649 19.7112C9.78649 19.5578 9.42777 19.4289 9.0686 19.4289C8.46582 19.4289 8.25041 19.7876 8.25041 20.1176C8.25041 20.9119 9.40396 20.6153 9.40396 21.1178C9.40396 21.2467 9.3127 21.3762 8.99699 21.3762C8.58577 21.3762 8.48497 21.156 8.36081 21.156C8.26001 21.156 8.18835 21.2951 8.18835 21.381C8.18835 21.563 8.53803 21.7636 9.01131 21.7636C9.55203 21.7636 9.85342 21.5052 9.85342 21.0987C9.85337 20.2376 8.69078 20.5151 8.69078 20.0937Z" fill="#171614"/>
<path d="M11.2559 21.2951H11.0882C10.8393 21.2951 10.7534 21.2086 10.7534 20.9788V19.8306H11.3371C11.423 19.8306 11.4761 19.7398 11.4761 19.6438C11.4761 19.5483 11.423 19.4575 11.3371 19.4575H10.7534V18.5815C10.7534 18.486 10.6239 18.4192 10.4997 18.4192C10.3798 18.4192 10.2509 18.486 10.2509 18.5815V20.9788C10.2509 21.5004 10.5427 21.7254 11.0881 21.7254H11.2558C11.3991 21.7254 11.4707 21.6203 11.4707 21.51C11.4708 21.4001 11.3991 21.2951 11.2559 21.2951Z" fill="#171614"/>
<path d="M13.452 21.1751C13.3225 21.1751 13.2079 21.3571 12.8683 21.3571C12.4995 21.3571 12.2459 21.156 12.2459 20.8355V20.7252H13.2556C13.471 20.7252 13.6913 20.7109 13.6913 20.314C13.6913 19.7924 13.2509 19.4289 12.7388 19.4289C12.1886 19.4289 11.7434 19.8544 11.7434 20.3569V20.8117C11.7434 21.381 12.2029 21.7636 12.854 21.7636C13.3369 21.7636 13.6483 21.5434 13.6483 21.4001C13.6483 21.3141 13.5714 21.1751 13.452 21.1751ZM12.2459 20.2614C12.2459 19.9982 12.4709 19.8114 12.7341 19.8114C13.0068 19.8114 13.2174 20.0173 13.2174 20.2709C13.2174 20.3856 13.1793 20.4142 13.0402 20.4142H12.2459V20.2614Z" fill="#171614"/>
<path d="M15.3325 19.4289H15.1792C14.8969 19.4289 14.6724 19.6295 14.5716 19.8306V19.6199C14.5716 19.5244 14.4666 19.4576 14.3419 19.4576C14.1986 19.4576 14.0978 19.5245 14.0978 19.6199V21.5583C14.0978 21.6395 14.1986 21.7254 14.3419 21.7254C14.4857 21.7254 14.6003 21.6394 14.6003 21.5583V20.5772C14.6003 20.1415 14.8874 19.8736 15.1792 19.8736H15.3326C15.4329 19.8736 15.5241 19.7733 15.5241 19.6486C15.5241 19.5292 15.4328 19.4289 15.3325 19.4289Z" fill="#171614"/>
<path d="M17.2798 21.1608C17.1699 21.1608 17.0935 21.3189 16.7773 21.3189C16.409 21.3189 16.2462 21.1274 16.2462 20.8117V20.3808C16.2462 20.0651 16.4138 19.8735 16.7725 19.8735C17.0792 19.8735 17.1652 20.0221 17.2654 20.0221C17.3853 20.0221 17.4665 19.8735 17.4665 19.778C17.4665 19.6103 17.1699 19.4289 16.7343 19.4289C16.0503 19.4289 15.7441 19.8449 15.7441 20.3808V20.8117C15.7441 21.3572 16.0503 21.7636 16.739 21.7636C17.1795 21.7636 17.4952 21.5677 17.4952 21.4001C17.4952 21.2998 17.414 21.1608 17.2798 21.1608Z" fill="#171614"/>
<path d="M18.5814 19.4289C18.2562 19.4289 17.8587 19.5626 17.8587 19.7351C17.8587 19.8497 17.9213 19.9887 18.0407 19.9887C18.1367 19.9887 18.2227 19.8449 18.5718 19.8449C18.921 19.8449 19.0457 20.1176 19.0457 20.3617V20.4477H18.835C18.1702 20.4477 17.7155 20.5915 17.7155 21.1321C17.7155 21.563 18.0025 21.7636 18.3516 21.7636C18.6775 21.7636 18.9067 21.5869 19.0744 21.3905V21.5582C19.0744 21.6489 19.1747 21.7253 19.3041 21.7253C19.4426 21.7253 19.5482 21.6489 19.5482 21.5582V20.3569C19.5482 19.8783 19.285 19.4289 18.5814 19.4289ZM19.0457 20.9024C19.0457 21.1321 18.773 21.381 18.5337 21.381C18.3565 21.381 18.2228 21.2855 18.2228 21.0701C18.2228 20.7639 18.5623 20.7252 18.9258 20.7252H19.0457V20.9024Z" fill="#171614"/>
<path d="M21.2945 19.4289H21.1417C20.8594 19.4289 20.6344 19.6295 20.5341 19.8306V19.6199C20.5341 19.5244 20.4286 19.4576 20.3044 19.4576C20.1606 19.4576 20.0603 19.5245 20.0603 19.6199V21.5583C20.0603 21.6395 20.1606 21.7254 20.3044 21.7254C20.4477 21.7254 20.5628 21.6394 20.5628 21.5583V20.5772C20.5628 20.1415 20.8499 19.8736 21.1417 19.8736H21.2945C21.3953 19.8736 21.4861 19.7733 21.4861 19.6486C21.4861 19.5292 21.3953 19.4289 21.2945 19.4289Z" fill="#171614"/>
<path d="M23.4286 18.1082C23.2853 18.1082 23.1749 18.1751 23.1749 18.2705V19.7923C23.0699 19.6056 22.8545 19.4289 22.5531 19.4289C22.084 19.4289 21.6967 19.8544 21.6967 20.3712V20.8116C21.6967 21.3093 22.0888 21.7635 22.5388 21.7635C22.5611 21.7635 22.5828 21.7625 22.6046 21.7603C22.9909 21.3374 23.3495 20.8885 23.6775 20.4174V18.2706C23.6775 18.1751 23.5724 18.1082 23.4286 18.1082ZM23.175 20.9215C23.175 21.0366 22.9601 21.3189 22.6821 21.3189C22.4189 21.3189 22.1992 21.0701 22.1992 20.8117V20.3713C22.1992 20.1224 22.4189 19.8735 22.6873 19.8735C22.9261 19.8735 23.175 20.0603 23.175 20.3713V20.9215Z" fill="#171614"/>
</svg>
