<svg width="26" height="26" viewBox="0 0 26 26" fill="none" xmlns="http://www.w3.org/2000/svg">
<g clip-path="url(#clip0)">
<path d="M12.9999 26C20.1793 26 25.9994 20.18 25.9994 13.0006C25.9994 5.82115 20.1793 0.00109863 12.9999 0.00109863C5.82054 0.00109863 0.000488281 5.82115 0.000488281 13.0006C0.000488281 20.18 5.82054 26 12.9999 26Z" fill="#F3F2F2"/>
<path d="M9.62634 15.4942L10.6211 9.62045H12.2315L11.2368 15.4942H9.62634Z" fill="#293688"/>
<path d="M16.9701 9.77228C16.6509 9.65324 16.1509 9.52576 15.5265 9.52576C13.9349 9.52576 12.8138 10.3226 12.8041 11.4642C12.7953 12.308 13.6044 12.7787 14.2157 13.0599C14.8425 13.3473 15.0533 13.5316 15.0503 13.7884C15.0464 14.1821 14.5494 14.3621 14.0864 14.3621C13.4419 14.3619 13.0993 14.273 12.5703 14.0538L12.3628 13.9602L12.1366 15.2751C12.5129 15.4392 13.2087 15.5814 13.931 15.5886C15.6237 15.5882 16.7231 14.8012 16.7355 13.5818C16.7416 12.9137 16.3124 12.4052 15.3832 11.9859C14.8201 11.7145 14.4753 11.5332 14.479 11.2578C14.479 11.0138 14.7711 10.7527 15.4015 10.7527C15.9281 10.7445 16.3097 10.8586 16.6072 10.9777L16.7513 11.0454L16.9701 9.77228Z" fill="#293688"/>
<path d="M19.7159 9.62045C19.33 9.62045 19.0512 9.73829 18.8816 10.1207L16.4949 15.4944H18.2L18.5315 14.5943H20.5687L20.758 15.4944H22.2738L20.9477 9.62062H19.7159L19.7159 9.62045ZM18.9839 13.419C19.1169 13.0808 19.6253 11.7773 19.6253 11.7773C19.6161 11.7927 19.7577 11.4374 19.839 11.217L19.948 11.7231C19.948 11.7231 20.2561 13.1253 20.3208 13.4192H18.9839V13.419Z" fill="#293688"/>
<path d="M6.68954 13.6468L6.54768 12.8416C6.25376 11.9029 5.34154 10.8873 4.31934 10.3785L5.74222 15.4942H7.44772L10.0055 9.62045H8.30036L6.68954 13.6468Z" fill="#293688"/>
<path d="M2.5686 9.62042V9.71527C4.58942 10.2013 5.99239 11.43 6.54782 12.8416L5.96387 10.1217C5.86638 9.74999 5.57098 9.63337 5.22143 9.62048L2.5686 9.62042Z" fill="#F7981D"/>
<path d="M12.9991 25.9999C18.0166 25.9999 22.3671 23.1558 24.534 18.9933H1.46448C3.6316 23.1558 7.98192 25.9999 12.9991 25.9999Z" fill="#F7981D"/>
<path d="M12.9991 0C8.06132 0 3.76663 2.75294 1.56604 6.80792H24.4326C22.2318 2.75316 17.9369 0 12.9991 0Z" fill="#293688"/>
</g>
<defs>
<clipPath id="clip0">
<rect width="26" height="26" fill="white"/>
</clipPath>
</defs>
</svg>
